<svg xmlns="http://www.w3.org/2000/svg" xmlns:xlink="http://www.w3.org/1999/xlink" width="193.059" height="190.03" viewBox="0 0 193.059 190.03">
    <defs>
        <clipPath id="clip-path">
            <rect id="Rectangle_125" data-name="Rectangle 125" width="34.936" height="52.647" fill="#fff"/>
        </clipPath>
    </defs>
    <g id="Group_78" data-name="Group 78" transform="translate(-1388.482 -4055)">
        <path id="Path_106" data-name="Path 106" d="M117.363,84.695V81.059c0-2.909,4.484-2.909,4.484,0v3.636C121.848,87.6,117.363,87.6,117.363,84.695Zm6.423,13.21a12.51,12.51,0,0,0,10.059,0c2.788-.97,1.212-5.211-1.575-4.242a7.779,7.779,0,0,1-6.787,0C122.817,92.572,121.12,96.693,123.787,97.9Zm25.45,86.774a21.209,21.209,0,1,1-21.209-21.209A21.232,21.232,0,0,1,149.237,184.678Zm-4.484,0A16.724,16.724,0,1,0,128.029,201.4,16.758,16.758,0,0,0,144.753,184.678Zm80.35,39.145v4.242a2.172,2.172,0,0,1-2.181,2.181H34.225a2.172,2.172,0,0,1-2.181-2.181v-4.242A15.025,15.025,0,0,1,47.072,208.8H79.188v-8.362c-13.573,12-35.267,2.3-35.267-15.876s21.693-27.874,35.267-15.876V151.35a2.172,2.172,0,0,1,2.181-2.181h10.18V122.991a18.672,18.672,0,0,1,18.663-18.663H113a21.317,21.317,0,0,1-8.362-14.3H100.4a8.534,8.534,0,0,1-8.6-8.483c.121-.727-1.454-8.726,6.3-10.786V66.273A26.094,26.094,0,0,1,124.15,40.217h8.726a26.094,26.094,0,0,1,26.056,26.056v4.484c7.635,2.06,6.181,10.3,6.3,10.786a8.534,8.534,0,0,1-8.6,8.483h-4.242a21.787,21.787,0,0,1-8.362,14.3h2.788a18.672,18.672,0,0,1,18.663,18.663v26.177h10.3a2.172,2.172,0,0,1,2.181,2.181v16.6a21.236,21.236,0,0,1,34.3,16.724c0,17.694-20.36,27.511-34.3,16.724v7.514h32.116A15.08,15.08,0,0,1,225.1,223.824ZM190.927,201.4a16.758,16.758,0,0,0,16.724-16.724c0-16.119-20.6-22.905-30.177-9.938C169.355,185.527,177.111,201.4,190.927,201.4Zm-50.295-92.712c3.636,8.483,5.211,9.453,4.121,11.271s-2.666.727-11.634,1.091l3.272,28h11.756v-13.21c0-2.909,4.484-2.909,4.484,0v13.21h8.362V122.991a14.2,14.2,0,0,0-14.18-14.18Zm-7.272.606v-.485h-9.332v.485a4.6,4.6,0,0,0,4.605,4.605A4.789,4.789,0,0,0,133.36,109.3Zm-4.969,10.18-3.515,29.571h7.029Zm11.028-2.909-2.181-4.727a8.65,8.65,0,0,1-3.272,4.727Zm13.574-39.387-.363,1.939v6.423h4a4.062,4.062,0,0,0,4.12-4V78.878C160.75,74.636,154.933,73.3,152.994,77.181Zm-48.6,1.7c0-5.332-8.12-5.332-8.12,0v2.666a4.062,4.062,0,0,0,4.121,4h4Zm2.06-5.939L123.18,61.062c4.848-3.393,5.454,14.543,25.45,15.634a8.589,8.589,0,0,1,5.939-5.938V66.274A21.62,21.62,0,0,0,133,44.7h-8.726A21.62,21.62,0,0,0,102.7,66.274v4.363A11.648,11.648,0,0,1,106.456,72.939Zm15.634,30.9c2.788.727,4.969.363,8.726.485a17.2,17.2,0,0,0,17.209-17.209V81.18a29.676,29.676,0,0,1-9.332-1.818c1.575,1.091.727,2.545.97,5.332,0,2.909-4.484,2.909-4.484,0V81.059a2.2,2.2,0,0,1,2.666-2.181c-9.7-4.121-13.089-11.756-14.058-12.968L108.88,76.453V87A17.161,17.161,0,0,0,122.09,103.843Zm-2.06,8.362-2.06,4.363h5.211A8.193,8.193,0,0,1,120.029,112.205ZM95.913,149.048h8.362v-13.21c0-2.909,4.484-2.909,4.484,0v13.21h11.513l3.393-28h-9.332a2.2,2.2,0,0,1-2.06-3.151l4.242-9.09h-6.3a14.2,14.2,0,0,0-14.18,14.18ZM79.43,193.4c6.908-10.907-1.212-25.45-14.3-25.45a16.758,16.758,0,0,0-16.724,16.724C48.405,201.524,70.7,207.826,79.43,193.4Zm15.513,30.54a10.5,10.5,0,0,0-8.483-10.3c-1.333-.363,1.091-.242-39.387-.242a10.552,10.552,0,0,0-10.544,10.544v1.939H94.943Zm62.778,0A10.552,10.552,0,0,0,147.176,213.4H109.849a10.552,10.552,0,0,0-10.544,10.544v1.939H157.72v-1.939ZM173.6,208.8V196.555a21.177,21.177,0,0,1,0-24V153.532H83.672v20.6a21.207,21.207,0,0,1,0,20.966v13.816a14.747,14.747,0,0,1,3.636.242,15.188,15.188,0,0,1,9.817,6.908,14.971,14.971,0,0,1,12.725-7.15h37.327a15.549,15.549,0,0,1,12.968,7.15A14.992,14.992,0,0,1,173.6,208.8Zm47.023,15.149A10.552,10.552,0,0,0,210.075,213.4H172.748A10.552,10.552,0,0,0,162.2,223.945v1.939h58.415v-1.939ZM38.1,108.569V86.634a6.077,6.077,0,0,1,6.06-6.06H82.581a6.077,6.077,0,0,1,6.06,6.06V108.57a6.077,6.077,0,0,1-6.06,6.06H69.492c-.121,3.03.97,6.908-2.181,6.908-1.212,0-.849-.363-10.907-6.908H44.163A6.077,6.077,0,0,1,38.1,108.569Zm4.484-.121a1.6,1.6,0,0,0,1.575,1.575c17.694.727,9.938-2.181,20.966,4.969v-2.666a2.172,2.172,0,0,1,2.181-2.181h15.27a1.6,1.6,0,0,0,1.575-1.575V86.634a1.6,1.6,0,0,0-1.575-1.575H44.163a1.6,1.6,0,0,0-1.575,1.575Zm6.908-6.3c4.363,0,4.363-6.544,0-6.544S45.133,102.146,49.5,102.146Zm13.331,0c4.363,0,4.363-6.544,0-6.544S58.464,102.146,62.827,102.146Zm16.725-3.272a3.272,3.272,0,0,0-6.545,0C73.007,103.237,79.551,103.237,79.551,98.874Z" transform="translate(1356.438 4014.783)" fill="#fff"/>
        <g id="Group_63" data-name="Group 63" transform="translate(1526.901 4088.734)">
            <g id="Group_45" data-name="Group 45" transform="translate(0 0)" clip-path="url(#clip-path)">
                <path id="Path_92" data-name="Path 92" d="M3.056,14.994A3.159,3.159,0,0,0,0,18.23V29.036a3.158,3.158,0,0,0,3.056,3.235,3.158,3.158,0,0,0,3.056-3.235V18.23a3.159,3.159,0,0,0-3.056-3.236" transform="translate(0 2.691)" fill="#fff"/>
                <path id="Path_93" data-name="Path 93" d="M11.2,10h0a3.16,3.16,0,0,0-3.057,3.235v22.6A3.16,3.16,0,0,0,11.2,39.063a3.159,3.159,0,0,0,3.055-3.236V13.232A3.159,3.159,0,0,0,11.2,10" transform="translate(1.462 1.794)" fill="#fff"/>
                <path id="Path_94" data-name="Path 94" d="M19.349,5h0a3.159,3.159,0,0,0-3.056,3.236V42.618a3.159,3.159,0,0,0,3.056,3.236A3.159,3.159,0,0,0,22.4,42.618V8.234A3.159,3.159,0,0,0,19.349,5" transform="translate(2.924 0.897)" fill="#fff"/>
                <path id="Path_95" data-name="Path 95" d="M27.495,0h0a3.159,3.159,0,0,0-3.056,3.236V49.41a3.061,3.061,0,1,0,6.112,0V3.236A3.159,3.159,0,0,0,27.495,0" transform="translate(4.385 0)" fill="#fff"/>
            </g>
        </g>
    </g>
</svg>
