<svg xmlns="http://www.w3.org/2000/svg" xmlns:xlink="http://www.w3.org/1999/xlink" width="434.612" height="654.933" viewBox="0 0 434.612 654.933">
    <defs>
        <clipPath id="clip-path">
            <rect id="Rectangle_125" data-name="Rectangle 125" width="434.612" height="654.933" fill="none" stroke="#00d1d4" stroke-width="2"/>
        </clipPath>
    </defs>
    <g id="Group_45" data-name="Group 45" clip-path="url(#clip-path)">
        <path id="Path_92" data-name="Path 92" d="M38.016,14.994C17.108,14.994,0,33.114,0,55.255V189.684c0,22.141,17.108,40.247,38.016,40.247s38.016-18.106,38.016-40.247V55.255c0-22.141-17.108-40.261-38.016-40.261" transform="translate(0 205.01)" fill="none" stroke="#00d1d4" stroke-width="2"/>
        <path id="Path_93" data-name="Path 93" d="M46.177,10h0C25.269,10,8.146,28.116,8.146,50.242V331.337c0,22.141,17.123,40.261,38.031,40.261s38-18.12,38-40.261V50.257C84.179,28.116,67.07,10,46.177,10" transform="translate(111.376 136.676)" fill="none" stroke="#00d1d4" stroke-width="2"/>
        <path id="Path_94" data-name="Path 94" d="M54.309,5h0C33.4,5,16.293,23.118,16.293,45.259V473c0,22.141,17.108,40.261,38.016,40.261S92.326,495.145,92.326,473V45.259C92.326,23.118,75.218,5,54.309,5" transform="translate(222.765 68.341)" fill="none" stroke="#00d1d4" stroke-width="2"/>
        <path id="Path_95" data-name="Path 95" d="M62.455,0h0C41.547,0,24.439,18.12,24.439,40.261V614.672c0,22.141,17.108,40.261,38.016,40.261s38.016-18.121,38.016-40.261V40.261C100.472,18.12,83.363,0,62.455,0" transform="translate(334.141 0.006)" fill="none" stroke="#00d1d4" stroke-width="2"/>
    </g>
</svg>
