<svg id="Group_43" data-name="Group 43" xmlns="http://www.w3.org/2000/svg" xmlns:xlink="http://www.w3.org/1999/xlink" width="106.746" height="147.692" viewBox="0 0 106.746 147.692">
    <defs>
        <clipPath id="clip-path">
            <rect id="Rectangle_111" data-name="Rectangle 111" width="106.746" height="147.692" fill="none"/>
        </clipPath>
    </defs>
    <rect id="Rectangle_106" data-name="Rectangle 106" width="52.079" height="52.079" fill="#00babc"/>
    <path id="Path_50" data-name="Path 50" d="M2.953,285.709H6.418l3.841,6.178,3.841-6.178h3.465v14.612H14.371v-9.54l-4.112,6.242h-.084L6.1,290.844v9.477H2.953Z" transform="translate(-2.305 -223.052)" fill="#58595b"/>
    <path id="Path_51" data-name="Path 51" d="M86.156,285.232h2.965l6.262,14.716H92.022l-1.336-3.277H84.507l-1.336,3.277H79.894Zm3.382,8.6L87.6,289.094l-1.941,4.739Z" transform="translate(-62.373 -222.679)" fill="#58595b"/>
    <g id="Group_42" data-name="Group 42">
        <g id="Group_41" data-name="Group 41" clip-path="url(#clip-path)">
            <path id="Path_52" data-name="Path 52" d="M160.831,285.71h6.68a5.821,5.821,0,0,1,4.258,1.482,4.587,4.587,0,0,1,1.252,3.34v.041a4.538,4.538,0,0,1-3.131,4.53l3.57,5.219H169.7l-3.131-4.676h-2.526v4.676h-3.214Zm6.471,7.1c1.565,0,2.463-.835,2.463-2.067V290.7c0-1.378-.96-2.088-2.526-2.088h-3.194v4.2Z" transform="translate(-125.56 -223.052)" fill="#58595b"/>
            <path id="Path_53" data-name="Path 53" d="M226.723,292.164v-.042a7.427,7.427,0,0,1,7.62-7.557,7.538,7.538,0,0,1,5.761,2.255l-2.045,2.358a5.4,5.4,0,0,0-3.737-1.649,4.33,4.33,0,0,0-4.238,4.551v.042a4.34,4.34,0,0,0,4.238,4.592A5.274,5.274,0,0,0,238.162,295l2.046,2.067a7.47,7.47,0,0,1-5.991,2.609,7.376,7.376,0,0,1-7.494-7.514" transform="translate(-177.001 -222.159)" fill="#58595b"/>
            <path id="Path_54" data-name="Path 54" d="M299.948,285.709H310.97v2.859h-7.828v2.965h6.889v2.86h-6.889v3.068h7.932v2.86H299.948Z" transform="translate(-234.168 -223.052)" fill="#58595b"/>
            <path id="Path_55" data-name="Path 55" d="M363.746,285.709h3.215V297.4h7.286v2.922h-10.5Z" transform="translate(-283.975 -223.052)" fill="#58595b"/>
            <path id="Path_56" data-name="Path 56" d="M415.928,292.164v-.042a7.769,7.769,0,0,1,15.531-.042v.042a7.769,7.769,0,0,1-15.531.042m12.17,0v-.042a4.44,4.44,0,0,0-4.426-4.593,4.371,4.371,0,0,0-4.384,4.551v.042a4.439,4.439,0,0,0,4.426,4.592,4.37,4.37,0,0,0,4.384-4.55" transform="translate(-324.713 -222.159)" fill="#58595b"/>
            <path id="Path_57" data-name="Path 57" d="M2.953,376.085H9.737a5.274,5.274,0,0,1,3.82,1.294,3.351,3.351,0,0,1,1,2.484v.042a3.4,3.4,0,0,1-1.92,3.152c1.69.647,2.734,1.628,2.734,3.59v.042c0,2.672-2.171,4.008-5.469,4.008H2.953Zm6.095,5.907c1.419,0,2.317-.459,2.317-1.545v-.041c0-.961-.751-1.5-2.108-1.5H6.084v3.089Zm.856,5.887c1.419,0,2.275-.5,2.275-1.587v-.041c0-.982-.73-1.587-2.38-1.587H6.084v3.215Z" transform="translate(-2.305 -293.608)" fill="#00babc"/>
            <path id="Path_58" data-name="Path 58" d="M71.7,376.085h6.68a5.821,5.821,0,0,1,4.258,1.482,4.587,4.587,0,0,1,1.252,3.34v.041a4.538,4.538,0,0,1-3.131,4.53l3.57,5.219H80.572l-3.131-4.676H74.915V390.7H71.7Zm6.471,7.1c1.565,0,2.463-.835,2.463-2.067v-.041c0-1.378-.96-2.088-2.526-2.088H74.915v4.2Z" transform="translate(-55.977 -293.608)" fill="#00babc"/>
            <rect id="Rectangle_107" data-name="Rectangle 107" width="3.214" height="14.612" transform="translate(30.969 82.478)" fill="#00babc"/>
            <path id="Path_59" data-name="Path 59" d="M172.543,376.085h3.465l3.841,6.178,3.841-6.178h3.465V390.7h-3.194v-9.54l-4.112,6.242h-.084l-4.07-6.179V390.7h-3.152Z" transform="translate(-134.703 -293.607)" fill="#00babc"/>
            <path id="Path_60" data-name="Path 60" d="M0,474.829v-.042a7.5,7.5,0,0,1,7.661-7.557,8.024,8.024,0,0,1,5.74,2l-2.025,2.442a5.382,5.382,0,0,0-3.82-1.482,4.389,4.389,0,0,0-4.2,4.551v.042a4.378,4.378,0,0,0,4.426,4.634,5.128,5.128,0,0,0,3.027-.877v-2.087H7.578v-2.777h6.346v6.346a9.483,9.483,0,0,1-6.242,2.317A7.313,7.313,0,0,1,0,474.829" transform="translate(0 -364.765)" fill="#58595b"/>
            <path id="Path_61" data-name="Path 61" d="M74.655,474.829v-.042a7.769,7.769,0,0,1,15.531-.042v.042a7.769,7.769,0,0,1-15.531.042m12.17,0v-.042a4.439,4.439,0,0,0-4.425-4.593,4.37,4.37,0,0,0-4.384,4.551v.042a4.439,4.439,0,0,0,4.426,4.592,4.37,4.37,0,0,0,4.383-4.55" transform="translate(-58.283 -364.765)" fill="#58595b"/>
            <path id="Path_62" data-name="Path 62" d="M158.545,468.374h3.465l3.841,6.178,3.841-6.178h3.465v14.612h-3.194v-9.54l-4.112,6.242h-.084l-4.07-6.179v9.477h-3.152Z" transform="translate(-123.775 -365.657)" fill="#58595b"/>
            <path id="Path_63" data-name="Path 63" d="M241.2,468.374h11.022v2.859H244.39V474.2h6.889v2.86H244.39v3.068h7.932v2.86H241.2Z" transform="translate(-188.301 -365.657)" fill="#58595b"/>
            <path id="Path_64" data-name="Path 64" d="M300.426,480.113l1.9-2.276a6.7,6.7,0,0,0,4.363,1.775c1.315,0,2.108-.522,2.108-1.378v-.042c0-.814-.5-1.231-2.943-1.858-2.943-.751-4.843-1.565-4.843-4.467v-.042c0-2.651,2.129-4.4,5.114-4.4a8.458,8.458,0,0,1,5.428,1.858l-1.67,2.421a6.855,6.855,0,0,0-3.8-1.44c-1.232,0-1.879.563-1.879,1.273v.042c0,.96.626,1.273,3.152,1.92,2.964.773,4.634,1.837,4.634,4.384v.042c0,2.9-2.213,4.53-5.365,4.53a9.3,9.3,0,0,1-6.2-2.338" transform="translate(-234.541 -364.913)" fill="#58595b"/>
            <path id="Path_65" data-name="Path 65" d="M4.392,584.508H9.069v.679H5.126v2.326H8.651v.67H5.126v2.836H4.392Z" transform="translate(-3.428 -456.322)" fill="#58595b"/>
            <path id="Path_66" data-name="Path 66" d="M30.266,587.384v-.019a3.32,3.32,0,1,1,6.64-.018v.018a3.32,3.32,0,1,1-6.64.019m5.878,0v-.019a2.589,2.589,0,0,0-2.567-2.688,2.557,2.557,0,0,0-2.548,2.669v.018a2.589,2.589,0,0,0,2.567,2.688,2.557,2.557,0,0,0,2.548-2.669" transform="translate(-23.629 -455.925)" fill="#58595b"/>
            <path id="Path_67" data-name="Path 67" d="M67.639,584.508h.688l4.1,5.217v-5.217h.716v6.51h-.586l-4.2-5.339v5.339h-.716Z" transform="translate(-52.806 -456.322)" fill="#58595b"/>
            <path id="Path_68" data-name="Path 68" d="M99.836,587.384v-.019a3.32,3.32,0,1,1,6.64-.018v.018a3.32,3.32,0,1,1-6.64.019m5.878,0v-.019a2.589,2.589,0,0,0-2.567-2.688,2.557,2.557,0,0,0-2.548,2.669v.018a2.589,2.589,0,0,0,2.567,2.688,2.557,2.557,0,0,0,2.548-2.669" transform="translate(-77.941 -455.925)" fill="#58595b"/>
            <path id="Path_69" data-name="Path 69" d="M135.893,584.3h.688l2.967,6.556h-.791l-.763-1.72h-3.543l-.772,1.72h-.753Zm1.813,4.176-1.479-3.32-1.488,3.32Z" transform="translate(-103.775 -456.157)" fill="#58595b"/>
            <path id="Path_70" data-name="Path 70" d="M167.454,588.293v-3.785h.734v3.739c0,1.4.744,2.194,1.991,2.194,1.2,0,1.962-.725,1.962-2.148v-3.785h.735v3.729a2.715,2.715,0,1,1-5.422.056" transform="translate(-130.73 -456.322)" fill="#58595b"/>
            <path id="Path_71" data-name="Path 71" d="M200.117,584.507h2.26a3.245,3.245,0,0,1,3.46,3.237v.018a3.259,3.259,0,0,1-3.46,3.256h-2.26Zm2.26,5.832a2.52,2.52,0,0,0,2.7-2.558v-.019a2.534,2.534,0,0,0-2.7-2.576h-1.525v5.153Z" transform="translate(-156.23 -456.321)" fill="#58595b"/>
            <rect id="Rectangle_108" data-name="Rectangle 108" width="0.735" height="6.51" transform="translate(51.227 128.186)" fill="#58595b"/>
            <path id="Path_72" data-name="Path 72" d="M244.32,587.384v-.019a3.32,3.32,0,1,1,6.64-.018v.018a3.32,3.32,0,1,1-6.64.019m5.878,0v-.019a2.589,2.589,0,0,0-2.567-2.688,2.557,2.557,0,0,0-2.548,2.669v.018a2.589,2.589,0,0,0,2.567,2.688,2.558,2.558,0,0,0,2.548-2.669" transform="translate(-190.739 -455.925)" fill="#58595b"/>
            <path id="Path_73" data-name="Path 73" d="M281.693,584.508h.734v5.832h3.664v.679h-4.4Z" transform="translate(-219.916 -456.322)" fill="#58595b"/>
            <path id="Path_74" data-name="Path 74" d="M304.938,587.384v-.019a3.32,3.32,0,1,1,6.64-.018v.018a3.32,3.32,0,1,1-6.64.019m5.878,0v-.019a2.589,2.589,0,0,0-2.567-2.688,2.557,2.557,0,0,0-2.548,2.669v.018a2.589,2.589,0,0,0,2.567,2.688,2.557,2.557,0,0,0,2.548-2.669" transform="translate(-238.063 -455.925)" fill="#58595b"/>
            <path id="Path_75" data-name="Path 75" d="M340.995,587.384v-.019A3.267,3.267,0,0,1,344.259,584a3.429,3.429,0,0,1,2.428.865l-.474.558a2.771,2.771,0,0,0-1.981-.744,2.544,2.544,0,0,0-2.474,2.669v.018a2.516,2.516,0,0,0,2.576,2.707,3.066,3.066,0,0,0,1.879-.651V587.8h-1.981v-.661h2.688v2.6a3.944,3.944,0,0,1-2.614,1,3.192,3.192,0,0,1-3.311-3.348" transform="translate(-266.213 -455.925)" fill="#58595b"/>
            <rect id="Rectangle_109" data-name="Rectangle 109" width="0.734" height="6.51" transform="translate(82.429 128.186)" fill="#58595b"/>
            <path id="Path_76" data-name="Path 76" d="M388.333,584.3h.688l2.967,6.556h-.79l-.763-1.72h-3.544l-.772,1.72h-.754Zm1.814,4.176-1.479-3.32-1.488,3.32Z" transform="translate(-300.853 -456.157)" fill="#58595b"/>
            <path id="Path_77" data-name="Path 77" d="M6.276,642.384a2.827,2.827,0,0,1-2.13,1.013A1.869,1.869,0,0,1,2.1,641.575v-.019c0-.865.577-1.488,1.572-1.879a2.107,2.107,0,0,1-.651-1.432v-.018a1.588,1.588,0,0,1,1.72-1.544,1.506,1.506,0,0,1,1.581,1.47v.018c0,.828-.586,1.357-1.535,1.693l1.488,1.515a8.519,8.519,0,0,0,.781-1.451l.605.28a9.157,9.157,0,0,1-.94,1.637l1.135,1.162-.558.428Zm-.447-.455-1.739-1.795c-.865.316-1.247.847-1.247,1.395v.019A1.255,1.255,0,0,0,4.2,642.775a2.225,2.225,0,0,0,1.627-.846m-.2-3.72v-.019a.884.884,0,0,0-.921-.9.932.932,0,0,0-.986.94v.018c0,.381.158.67.651,1.2.828-.279,1.255-.679,1.255-1.237" transform="translate(-1.639 -497.055)" fill="#58595b"/>
            <path id="Path_78" data-name="Path 78" d="M45.326,640.069v-.019a3.279,3.279,0,0,1,3.292-3.366,3.389,3.389,0,0,1,2.539,1.033l-.5.539a2.829,2.829,0,0,0-2.046-.893,2.553,2.553,0,0,0-2.52,2.669v.018a2.569,2.569,0,0,0,2.52,2.688,2.828,2.828,0,0,0,2.1-.939l.483.474a3.389,3.389,0,0,1-2.6,1.144,3.247,3.247,0,0,1-3.265-3.348" transform="translate(-35.386 -497.056)" fill="#58595b"/>
            <path id="Path_79" data-name="Path 79" d="M75.783,640.069v-.019a3.32,3.32,0,1,1,6.64-.018v.018a3.32,3.32,0,1,1-6.64.019m5.878,0v-.019a2.589,2.589,0,0,0-2.567-2.688,2.558,2.558,0,0,0-2.548,2.669v.018a2.589,2.589,0,0,0,2.567,2.688,2.557,2.557,0,0,0,2.548-2.669" transform="translate(-59.163 -497.056)" fill="#58595b"/>
            <path id="Path_80" data-name="Path 80" d="M113.158,637.192h.744l2.371,3.552,2.371-3.552h.744v6.51h-.734v-5.273l-2.371,3.488h-.037l-2.372-3.479V643.7h-.716Z" transform="translate(-88.342 -497.453)" fill="#58595b"/>
            <path id="Path_81" data-name="Path 81" d="M149.511,640.977v-3.785h.734v3.739c0,1.4.744,2.194,1.991,2.194,1.2,0,1.962-.725,1.962-2.148v-3.785h.734v3.729a2.715,2.715,0,1,1-5.422.056" transform="translate(-116.722 -497.452)" fill="#58595b"/>
            <path id="Path_82" data-name="Path 82" d="M182.173,637.192h.689l4.1,5.217v-5.217h.716v6.51h-.586l-4.2-5.339V643.7h-.716Z" transform="translate(-142.222 -497.453)" fill="#58595b"/>
            <rect id="Rectangle_110" data-name="Rectangle 110" width="0.735" height="6.51" transform="translate(47.366 139.74)" fill="#58595b"/>
            <path id="Path_83" data-name="Path 83" d="M226.716,640.069v-.019a3.279,3.279,0,0,1,3.292-3.366,3.389,3.389,0,0,1,2.539,1.033l-.5.539a2.829,2.829,0,0,0-2.046-.893,2.553,2.553,0,0,0-2.52,2.669v.018a2.569,2.569,0,0,0,2.52,2.688,2.827,2.827,0,0,0,2.1-.939l.484.474a3.389,3.389,0,0,1-2.6,1.144,3.247,3.247,0,0,1-3.265-3.348" transform="translate(-176.996 -497.056)" fill="#58595b"/>
            <path id="Path_84" data-name="Path 84" d="M259.757,636.981h.688l2.967,6.556h-.79l-.763-1.72h-3.544l-.772,1.72h-.754Zm1.814,4.176-1.479-3.32-1.488,3.32Z" transform="translate(-200.475 -497.288)" fill="#58595b"/>
            <path id="Path_85" data-name="Path 85" d="M291.9,644.43l.716-1.042a3.252,3.252,0,0,1-2.818-3.32v-.019a3.28,3.28,0,0,1,3.292-3.366,3.389,3.389,0,0,1,2.539,1.033l-.5.539a2.828,2.828,0,0,0-2.046-.893,2.553,2.553,0,0,0-2.52,2.669v.018a2.569,2.569,0,0,0,2.52,2.688,2.827,2.827,0,0,0,2.1-.939l.484.474a3.376,3.376,0,0,1-2.455,1.135l-.614,1.339Z" transform="translate(-226.241 -497.055)" fill="#58595b"/>
            <path id="Path_86" data-name="Path 86" d="M322.839,630.954h.688l2.967,6.556H325.7l-.763-1.72H321.4l-.772,1.72h-.753Zm-1.163-.67c.186-.643.437-.949.875-.949.409,0,.939.363,1.246.363.242,0,.345-.131.484-.437l.456.13c-.186.642-.437.939-.874.939-.409,0-.939-.363-1.246-.363-.242,0-.344.13-.484.446Zm2.976,4.845-1.479-3.32-1.488,3.32Z" transform="translate(-249.722 -491.261)" fill="#58595b"/>
            <path id="Path_87" data-name="Path 87" d="M352.873,640.069v-.019a3.32,3.32,0,1,1,6.64-.018v.018a3.32,3.32,0,1,1-6.64.019m5.878,0v-.019a2.589,2.589,0,0,0-2.567-2.688,2.558,2.558,0,0,0-2.548,2.669v.018a2.589,2.589,0,0,0,2.567,2.688,2.557,2.557,0,0,0,2.548-2.669" transform="translate(-275.486 -497.056)" fill="#58595b"/>
            <path id="Path_88" data-name="Path 88" d="M74.147,94.663h0a1.839,1.839,0,0,0-1.779,1.884v6.291a1.782,1.782,0,1,0,3.558,0v-6.29a1.839,1.839,0,0,0-1.779-1.884" transform="translate(-56.497 -73.903)" fill="#fff"/>
            <path id="Path_89" data-name="Path 89" d="M99.652,79.016h0A1.839,1.839,0,0,0,97.873,80.9V94.053a1.782,1.782,0,1,0,3.558,0V80.9a1.839,1.839,0,0,0-1.779-1.884" transform="translate(-76.409 -61.687)" fill="#fff"/>
            <path id="Path_90" data-name="Path 90" d="M125.156,63.369h0a1.839,1.839,0,0,0-1.779,1.884V85.27a1.839,1.839,0,0,0,1.779,1.884h0a1.839,1.839,0,0,0,1.779-1.884V65.253a1.839,1.839,0,0,0-1.779-1.884" transform="translate(-96.32 -49.472)" fill="#fff"/>
            <path id="Path_91" data-name="Path 91" d="M150.659,47.722h0a1.839,1.839,0,0,0-1.779,1.884V76.485a1.782,1.782,0,1,0,3.558,0V49.606a1.839,1.839,0,0,0-1.779-1.884" transform="translate(-116.23 -37.256)" fill="#fff"/>
        </g>
    </g>
</svg>
