<?xml version="1.0" encoding="UTF-8"?>
<svg id="Layer_1" data-name="Layer 1" xmlns="http://www.w3.org/2000/svg" viewBox="0 0 958 252">
  <defs>
    <style>
      .cls-1 {
        fill: #58595b;
      }

      .cls-1, .cls-2, .cls-3 {
        stroke-width: 0px;
      }

      .cls-2 {
        fill: #00babc;
      }

      .cls-3 {
        fill: #fff;
      }
    </style>
  </defs>
  <rect id="Rectangle_106" data-name="Rectangle 106" class="cls-2" x="66.94" y="47.14" width="157.72" height="157.72"/>
  <g>
    <path id="Path_50" data-name="Path 50" class="cls-1" d="M251.63,84.54h9.16l10.15,16.33,10.15-16.33h9.16v38.63h-8.44v-25.22l-10.87,16.5h-.22l-10.77-16.34v25.06h-8.32v-38.63Z"/>
    <path id="Path_51" data-name="Path 51" class="cls-1" d="M312.79,84.27h7.84l16.56,38.91h-8.89l-3.53-8.66h-16.34l-3.53,8.66h-8.66l16.56-38.91ZM321.74,107l-5.12-12.53-5.13,12.53h10.26Z"/>
    <path id="Path_52" data-name="Path 52" class="cls-1" d="M343.17,84.54h17.66c4.13-.26,8.18,1.15,11.26,3.92,2.25,2.38,3.44,5.56,3.31,8.83v.11c.26,5.4-3.13,10.31-8.28,11.98l9.44,13.8h-9.94l-8.28-12.36h-6.68v12.36h-8.5v-38.63ZM360.27,103.31c4.14,0,6.51-2.21,6.51-5.46v-.11c0-3.64-2.54-5.52-6.68-5.52h-8.44v11.1h8.61Z"/>
    <path id="Path_53" data-name="Path 53" class="cls-1" d="M381.37,103.97v-.11c-.19-10.84,8.44-19.79,19.28-19.98.29,0,.58,0,.86,0,5.7-.28,11.24,1.89,15.23,5.96l-5.41,6.23c-2.6-2.69-6.14-4.26-9.88-4.36-6.32.13-11.34,5.35-11.22,11.67,0,.12,0,.24.01.36v.11c-.37,6.33,4.46,11.75,10.79,12.12.14,0,.28.01.42.02,3.87-.04,7.54-1.68,10.15-4.53l5.41,5.46c-3.94,4.61-9.78,7.15-15.84,6.9-10.77.17-19.64-8.41-19.81-19.18,0-.23,0-.46,0-.68"/>
    <path id="Path_54" data-name="Path 54" class="cls-1" d="M423.83,84.54h29.14v7.56h-20.7v7.84h18.21v7.56h-18.21v8.11h20.97v7.56h-29.42v-38.63Z"/>
    <path id="Path_55" data-name="Path 55" class="cls-1" d="M460.82,84.54h8.5v30.91h19.26v7.73h-27.76v-38.63Z"/>
    <path id="Path_56" data-name="Path 56" class="cls-1" d="M491.07,103.97v-.11c.31-11.34,9.75-20.28,21.09-19.97,10.86.3,19.62,9,19.97,19.86v.11c-.31,11.34-9.75,20.28-21.09,19.97-10.86-.3-19.62-9-19.97-19.86M523.25,103.97v-.11c.22-6.48-4.85-11.91-11.33-12.14-.12,0-.25,0-.37,0-6.38-.02-11.58,5.13-11.6,11.51,0,.17,0,.35,0,.52v.11c-.22,6.48,4.85,11.91,11.32,12.13.13,0,.25,0,.38,0,6.38.03,11.57-5.13,11.6-11.51,0-.17,0-.35,0-.52"/>
    <path id="Path_57" data-name="Path 57" class="cls-2" d="M539.66,84.01h17.94c3.69-.24,7.32.99,10.1,3.42,1.76,1.73,2.71,4.11,2.64,6.57v.11c.09,3.53-1.89,6.8-5.08,8.33,4.47,1.71,7.23,4.3,7.23,9.49v.11c0,7.06-5.74,10.6-14.46,10.6h-18.37v-38.63ZM555.77,99.63c3.75,0,6.13-1.21,6.13-4.08v-.11c0-2.54-1.99-3.97-5.57-3.97h-8.39v8.17h7.84ZM558.03,115.2c3.75,0,6.01-1.32,6.01-4.2v-.11c0-2.6-1.93-4.2-6.29-4.2h-9.82v8.5h10.1Z"/>
    <path id="Path_58" data-name="Path 58" class="cls-2" d="M579.51,84.01h17.66c4.13-.26,8.18,1.15,11.26,3.92,2.25,2.38,3.44,5.56,3.31,8.83v.11c.25,5.4-3.13,10.31-8.28,11.98l9.44,13.8h-9.93l-8.28-12.36h-6.68v12.37h-8.5v-38.64ZM596.62,102.79c4.14,0,6.51-2.21,6.51-5.46v-.11c0-3.64-2.54-5.52-6.68-5.52h-8.44v11.1h8.61Z"/>
    <rect id="Rectangle_107" data-name="Rectangle 107" class="cls-2" x="619.82" y="84.02" width="8.5" height="38.63"/>
    <path id="Path_59" data-name="Path 59" class="cls-2" d="M637.99,84.02h9.16l10.15,16.33,10.15-16.33h9.16v38.64h-8.44v-25.22l-10.87,16.5h-.22l-10.76-16.34v25.06h-8.33v-38.64Z"/>
    <path id="Path_60" data-name="Path 60" class="cls-1" d="M686.29,103.46v-.11c-.09-10.95,8.72-19.9,19.67-19.98.19,0,.39,0,.58,0,5.56-.3,11.01,1.6,15.18,5.29l-5.35,6.46c-2.72-2.59-6.35-3.99-10.1-3.92-6.38.27-11.35,5.65-11.1,12.03v.11c-.37,6.38,4.5,11.86,10.88,12.23.27.02.55.02.82.02,2.84.09,5.64-.72,8-2.32v-5.52h-8.54v-7.34h16.78v16.78c-4.58,3.97-10.44,6.15-16.5,6.13-10.66.54-19.75-7.66-20.29-18.33-.03-.51-.03-1.02-.02-1.53"/>
    <path id="Path_61" data-name="Path 61" class="cls-1" d="M729.58,103.46v-.11c.31-11.34,9.75-20.28,21.09-19.97,10.86.3,19.62,9,19.97,19.86v.11c-.31,11.34-9.75,20.28-21.09,19.97-10.86-.3-19.62-9-19.97-19.86M761.75,103.46v-.11c.22-6.48-4.84-11.91-11.32-12.14-.13,0-.25,0-.38,0-6.38-.03-11.57,5.13-11.6,11.51,0,.18,0,.35,0,.53v.11c-.22,6.48,4.85,11.91,11.32,12.13.13,0,.25,0,.38,0,6.38.02,11.57-5.13,11.6-11.51,0-.17,0-.35,0-.52"/>
    <path id="Path_62" data-name="Path 62" class="cls-1" d="M778.22,84.03h9.16l10.15,16.33,10.15-16.33h9.16v38.63h-8.44v-25.22l-10.87,16.5h-.22l-10.76-16.34v25.06h-8.33v-38.63Z"/>
    <path id="Path_63" data-name="Path 63" class="cls-1" d="M826.15,84.03h29.14v7.56h-20.71v7.84h18.21v7.56h-18.21v8.11h20.97v7.56h-29.4v-38.64Z"/>
    <path id="Path_64" data-name="Path 64" class="cls-1" d="M860.48,117.04l5.02-6.02c3.15,2.91,7.25,4.58,11.54,4.69,3.48,0,5.57-1.38,5.57-3.64v-.11c0-2.15-1.32-3.25-7.78-4.91-7.78-1.99-12.8-4.14-12.8-11.81v-.11c0-7.01,5.63-11.63,13.52-11.63,5.21-.08,10.29,1.65,14.35,4.91l-4.42,6.4c-2.89-2.26-6.39-3.58-10.05-3.81-3.26,0-4.97,1.49-4.97,3.37v.11c0,2.54,1.66,3.37,8.33,5.08,7.84,2.04,12.25,4.86,12.25,11.59v.11c0,7.67-5.85,11.98-14.18,11.98-6.04.02-11.87-2.18-16.39-6.18"/>
    <path id="Path_65" data-name="Path 65" class="cls-1" d="M252.46,140.72h16.87v2.45h-14.23v8.39h12.72v2.42h-12.72v10.23h-2.65v-23.49Z"/>
    <path id="Path_66" data-name="Path 66" class="cls-1" d="M272.93,152.53v-.07c-.02-6.62,5.33-11.99,11.95-12.01,6.62-.02,11.99,5.33,12.01,11.95h0v.06c.02,6.62-5.33,11.99-11.94,12.01-6.62.02-11.99-5.33-12.01-11.94M294.14,152.53v-.07c.2-5.15-3.82-9.49-8.98-9.69-.09,0-.19,0-.28,0-5.09.01-9.21,4.15-9.2,9.25,0,.13,0,.25,0,.38v.06c-.2,5.15,3.82,9.49,8.98,9.69.09,0,.19,0,.28,0,5.09-.01,9.21-4.15,9.2-9.25,0-.13,0-.25,0-.38"/>
    <path id="Path_67" data-name="Path 67" class="cls-1" d="M302.5,140.72h2.48l14.79,18.82v-18.82h2.58v23.49h-2.11l-15.15-19.26v19.26h-2.58v-23.49Z"/>
    <path id="Path_68" data-name="Path 68" class="cls-1" d="M327.98,152.53v-.07c-.02-6.62,5.33-11.99,11.95-12.01,6.62-.02,11.99,5.33,12.01,11.95v.06c.02,6.62-5.33,11.99-11.94,12.01-6.62.02-11.99-5.33-12.01-11.94M349.18,152.53v-.07c.2-5.15-3.82-9.49-8.98-9.69-.09,0-.19,0-.28,0-5.09.01-9.21,4.15-9.2,9.25,0,.13,0,.25,0,.38v.06c-.2,5.15,3.82,9.49,8.98,9.69.09,0,.19,0,.28,0,5.09-.01,9.21-4.15,9.2-9.25,0-.13,0-.25,0-.38"/>
    <path id="Path_69" data-name="Path 69" class="cls-1" d="M364.86,140.57h2.48l10.7,23.65h-2.85l-2.75-6.21h-12.78l-2.79,6.21h-2.72l10.7-23.65ZM371.4,155.63l-5.34-11.98-5.37,11.98h10.7Z"/>
    <path id="Path_70" data-name="Path 70" class="cls-1" d="M381.48,154.38v-13.66h2.65v13.49c0,5.05,2.68,7.92,7.18,7.92s7.08-2.62,7.08-7.75v-13.66h2.65v13.45c.34,5.4-3.75,10.05-9.15,10.4-5.4.34-10.05-3.75-10.4-9.15-.02-.35-.03-.7-.01-1.04"/>
    <path id="Path_71" data-name="Path 71" class="cls-1" d="M407.32,140.72h8.15c6.45-.43,12.03,4.45,12.46,10.91.02.26.03.51.03.77v.06c0,6.49-5.25,11.76-11.75,11.77-.25,0-.49,0-.74-.02h-8.15v-23.49ZM415.47,161.76c5.01.36,9.36-3.41,9.72-8.42.02-.27.03-.54.02-.81v-.07c.09-5.05-3.92-9.22-8.97-9.31-.26,0-.51,0-.77.02h-5.5v18.59h5.5Z"/>
    <rect id="Rectangle_108" data-name="Rectangle 108" class="cls-1" x="433.8" y="140.72" width="2.65" height="23.49"/>
    <path id="Path_72" data-name="Path 72" class="cls-1" d="M442.29,152.53v-.07c-.02-6.62,5.33-11.99,11.95-12.01,6.62-.02,11.99,5.33,12.01,11.95v.06c.02,6.62-5.33,11.99-11.94,12.01-6.62.02-11.99-5.33-12.01-11.94M463.5,152.53v-.07c.2-5.15-3.82-9.49-8.98-9.69-.09,0-.19,0-.28,0-5.09.01-9.21,4.15-9.2,9.25,0,.13,0,.25,0,.38v.06c-.2,5.15,3.82,9.49,8.98,9.69.09,0,.19,0,.28,0,5.1-.02,9.22-4.16,9.2-9.26,0-.12,0-.25,0-.37"/>
    <path id="Path_73" data-name="Path 73" class="cls-1" d="M471.86,140.72h2.65v21.04h13.22v2.45h-15.87v-23.49Z"/>
    <path id="Path_74" data-name="Path 74" class="cls-1" d="M490.26,152.53v-.07c-.02-6.62,5.33-11.99,11.95-12.01,6.62-.02,11.99,5.33,12.01,11.95v.06c.02,6.62-5.33,11.99-11.94,12.01-6.62.02-11.99-5.33-12.01-11.94h0M511.46,152.53v-.07c.2-5.15-3.82-9.49-8.98-9.69-.09,0-.19,0-.28,0-5.09.01-9.21,4.15-9.2,9.25,0,.13,0,.25,0,.38v.06c-.2,5.15,3.82,9.49,8.98,9.69.09,0,.19,0,.28,0,5.09-.01,9.21-4.15,9.2-9.25,0-.13,0-.25,0-.38"/>
    <path id="Path_75" data-name="Path 75" class="cls-1" d="M518.78,152.53v-.07c-.2-6.51,4.92-11.94,11.43-12.13.12,0,.23,0,.35,0,3.21-.14,6.36.98,8.76,3.12l-1.71,2.01c-1.93-1.8-4.5-2.77-7.15-2.68-5.07.13-9.07,4.35-8.93,9.42,0,.07,0,.14,0,.21v.06c-.38,5,3.36,9.36,8.36,9.74.31.02.62.03.94.02,2.46,0,4.84-.83,6.78-2.35v-5.85h-7.15v-2.38h9.7v9.38c-2.6,2.31-5.95,3.6-9.43,3.61-6.36.24-11.71-4.71-11.95-11.06-.01-.34-.01-.68,0-1.01"/>
    <rect id="Rectangle_109" data-name="Rectangle 109" class="cls-1" x="546.37" y="140.72" width="2.65" height="23.49"/>
    <path id="Path_76" data-name="Path 76" class="cls-1" d="M564.59,140.57h2.48l10.7,23.65h-2.85l-2.75-6.21h-12.79l-2.79,6.21h-2.72l10.71-23.65ZM571.14,155.63l-5.34-11.98-5.37,11.98h10.7Z"/>
    <path id="Path_77" data-name="Path 77" class="cls-1" d="M604.64,161.35c-1.91,2.28-4.71,3.61-7.68,3.65-3.71.35-7-2.37-7.35-6.07-.02-.17-.03-.33-.03-.5v-.07c0-3.12,2.08-5.37,5.67-6.78-1.42-1.35-2.26-3.21-2.35-5.17v-.06c.08-3.16,2.7-5.67,5.87-5.59.11,0,.23,0,.34.02,3-.15,5.55,2.16,5.7,5.15,0,.05,0,.1,0,.15v.06c0,2.99-2.11,4.9-5.54,6.11l5.37,5.47c1.11-1.65,2.05-3.4,2.82-5.23l2.18,1.01c-.92,2.08-2.06,4.06-3.39,5.91l4.09,4.19-2.01,1.54-3.69-3.79ZM603.02,159.71l-6.27-6.48c-3.12,1.14-4.5,3.06-4.5,5.03v.07c.05,2.5,2.11,4.49,4.61,4.44.09,0,.19,0,.28-.01,2.3-.13,4.44-1.24,5.87-3.05M602.29,146.29v-.07c.03-1.76-1.37-3.22-3.13-3.25-.06,0-.13,0-.19,0-1.85-.11-3.44,1.31-3.55,3.16,0,.08,0,.15,0,.23v.06c0,1.37.57,2.42,2.35,4.33,2.99-1.01,4.53-2.45,4.53-4.46"/>
    <path id="Path_78" data-name="Path 78" class="cls-1" d="M623.77,153v-.07c-.17-6.53,4.98-11.97,11.51-12.14.12,0,.24,0,.37,0,3.44-.1,6.77,1.25,9.16,3.73l-1.8,1.94c-1.91-2.04-4.58-3.21-7.38-3.22-5.09.06-9.16,4.23-9.1,9.32,0,.1,0,.21,0,.31v.06c-.24,5.11,3.71,9.45,8.83,9.69.09,0,.18,0,.26,0,2.89,0,5.64-1.24,7.58-3.39l1.74,1.71c-2.37,2.68-5.8,4.19-9.38,4.13-6.47.04-11.75-5.17-11.78-11.64,0-.15,0-.29,0-.44"/>
    <path id="Path_79" data-name="Path 79" class="cls-1" d="M647.87,153v-.07c-.02-6.62,5.33-11.99,11.95-12.01,6.62-.02,11.99,5.33,12.01,11.95h0v.06c.02,6.62-5.33,11.99-11.94,12.01-6.62.02-11.99-5.33-12.01-11.94M669.07,153v-.07c.2-5.15-3.82-9.49-8.98-9.69-.09,0-.19,0-.28,0-5.1.02-9.22,4.16-9.2,9.26,0,.12,0,.25,0,.37v.06c-.2,5.15,3.82,9.49,8.98,9.69.09,0,.19,0,.28,0,5.09-.01,9.21-4.15,9.2-9.25,0-.13,0-.25,0-.38"/>
    <path id="Path_80" data-name="Path 80" class="cls-1" d="M677.44,141.18h2.68l8.55,12.81,8.55-12.81h2.68v23.49h-2.65v-19.02l-8.55,12.58h-.13l-8.56-12.55v18.98h-2.58v-23.48Z"/>
    <path id="Path_81" data-name="Path 81" class="cls-1" d="M706.2,154.84v-13.66h2.65v13.49c0,5.05,2.68,7.92,7.18,7.92s7.08-2.62,7.08-7.75v-13.66h2.65v13.45c.34,5.4-3.75,10.05-9.15,10.4-5.4.34-10.05-3.75-10.4-9.15-.02-.35-.03-.7-.01-1.04"/>
    <path id="Path_82" data-name="Path 82" class="cls-1" d="M732.04,141.18h2.49l14.79,18.82v-18.82h2.58v23.49h-2.11l-15.15-19.26v19.25h-2.58v-23.48Z"/>
    <rect id="Rectangle_110" data-name="Rectangle 110" class="cls-1" x="758.79" y="141.19" width="2.65" height="23.49"/>
    <path id="Path_83" data-name="Path 83" class="cls-1" d="M767.29,153v-.07c-.17-6.53,4.98-11.97,11.51-12.14.12,0,.24,0,.37,0,3.44-.1,6.77,1.25,9.16,3.73l-1.8,1.94c-1.91-2.04-4.58-3.21-7.38-3.22-5.09.06-9.16,4.23-9.1,9.32,0,.1,0,.21,0,.31v.06c-.24,5.11,3.71,9.45,8.83,9.69.09,0,.18,0,.26,0,2.89,0,5.65-1.24,7.58-3.39l1.75,1.71c-2.37,2.68-5.8,4.19-9.38,4.13-6.47.04-11.75-5.17-11.78-11.64,0-.15,0-.29,0-.44"/>
    <path id="Path_84" data-name="Path 84" class="cls-1" d="M801.78,141.02h2.48l10.7,23.65h-2.85l-2.75-6.21h-12.79l-2.79,6.21h-2.72l10.71-23.65ZM808.33,156.08l-5.34-11.98-5.37,11.98h10.7Z"/>
    <path id="Path_85" data-name="Path 85" class="cls-1" d="M824.79,168.73l2.58-3.76c-5.96-.8-10.35-5.97-10.17-11.98v-.07c-.17-6.53,4.99-11.97,11.52-12.14.12,0,.24,0,.36,0,3.44-.1,6.77,1.25,9.16,3.73l-1.8,1.94c-1.91-2.04-4.58-3.21-7.38-3.22-5.09.06-9.16,4.23-9.1,9.32,0,.1,0,.21,0,.31v.06c-.24,5.11,3.71,9.45,8.83,9.69.09,0,.18,0,.26,0,2.89,0,5.65-1.24,7.58-3.39l1.75,1.71c-2.25,2.54-5.46,4.02-8.86,4.09l-2.22,4.83-2.52-1.14Z"/>
    <path id="Path_86" data-name="Path 86" class="cls-1" d="M851.7,141.02h2.48l10.7,23.65h-2.86l-2.75-6.21h-12.76l-2.79,6.21h-2.72l10.69-23.65ZM847.5,138.6c.67-2.32,1.58-3.42,3.16-3.42,1.48,0,3.39,1.31,4.5,1.31.87,0,1.24-.47,1.75-1.58l1.65.47c-.67,2.32-1.58,3.39-3.15,3.39-1.48,0-3.39-1.31-4.5-1.31-.87,0-1.24.47-1.75,1.61l-1.65-.47ZM858.24,156.08l-5.34-11.98-5.37,11.98h10.7Z"/>
    <path id="Path_87" data-name="Path 87" class="cls-1" d="M867.1,153v-.07c-.02-6.62,5.33-11.99,11.95-12.01,6.62-.02,11.99,5.33,12.01,11.95v.06c.02,6.62-5.33,11.99-11.94,12.01-6.62.02-11.99-5.33-12.01-11.94h0M888.31,153v-.07c.2-5.15-3.82-9.49-8.98-9.69-.09,0-.19,0-.28,0-5.1.02-9.22,4.16-9.2,9.26,0,.12,0,.25,0,.37v.06c-.2,5.15,3.82,9.49,8.98,9.69.09,0,.19,0,.28,0,5.09-.01,9.21-4.15,9.2-9.25,0-.13,0-.25,0-.38"/>
  </g>
  <path id="Path_88" data-name="Path 88" class="cls-3" d="M120.39,110.77h0c-3.06.1-5.46,2.65-5.39,5.71v19.05c-.17,2.98,2.1,5.53,5.07,5.7,2.98.17,5.53-2.1,5.7-5.07.01-.21.01-.42,0-.63v-19.05c.08-3.06-2.33-5.61-5.39-5.71"/>
  <path id="Path_89" data-name="Path 89" class="cls-3" d="M137.33,100.38h0c-3.06.1-5.46,2.65-5.39,5.71v39.83c-.17,2.98,2.1,5.53,5.07,5.7,2.98.17,5.53-2.1,5.7-5.07.01-.21.01-.42,0-.63v-39.83c.08-3.06-2.33-5.61-5.39-5.71"/>
  <path id="Path_90" data-name="Path 90" class="cls-3" d="M154.27,89.98h0c-3.06.1-5.46,2.65-5.39,5.71v60.62c-.08,3.06,2.33,5.61,5.39,5.71h0c3.06-.1,5.46-2.65,5.39-5.71v-60.62c.08-3.06-2.33-5.61-5.39-5.71"/>
  <path id="Path_91" data-name="Path 91" class="cls-3" d="M171.21,79.59h0c-3.06.1-5.46,2.65-5.39,5.71v81.4c-.17,2.98,2.1,5.53,5.07,5.7s5.53-2.1,5.7-5.07c.01-.21.01-.42,0-.63v-81.4c.08-3.06-2.33-5.61-5.39-5.71"/>
</svg>