<svg xmlns="http://www.w3.org/2000/svg" xmlns:xlink="http://www.w3.org/1999/xlink" width="13.689" height="20.629" viewBox="0 0 13.689 20.629">
    <defs>
        <clipPath id="clip-path">
            <rect id="Rectangle_125" data-name="Rectangle 125" width="13.689" height="20.629" fill="#00babc"/>
        </clipPath>
    </defs>
    <g id="Group_71" data-name="Group 71" transform="translate(0 0)">
        <g id="Group_45" data-name="Group 45" transform="translate(0 0)" clip-path="url(#clip-path)">
            <path id="Path_92" data-name="Path 92" d="M1.2,14.994A1.238,1.238,0,0,0,0,16.262V20.5a1.238,1.238,0,0,0,1.2,1.268,1.238,1.238,0,0,0,1.2-1.268V16.262a1.238,1.238,0,0,0-1.2-1.268" transform="translate(0 -8.064)" fill="#00babc"/>
            <path id="Path_93" data-name="Path 93" d="M9.344,10h0a1.238,1.238,0,0,0-1.2,1.268v8.854a1.2,1.2,0,1,0,2.395,0V11.264A1.238,1.238,0,0,0,9.344,10" transform="translate(-4.381 -5.376)" fill="#00babc"/>
            <path id="Path_94" data-name="Path 94" d="M17.49,5h0a1.238,1.238,0,0,0-1.2,1.268V19.739a1.2,1.2,0,1,0,2.395,0V6.266A1.238,1.238,0,0,0,17.49,5" transform="translate(-8.763 -2.688)" fill="#00babc"/>
            <path id="Path_95" data-name="Path 95" d="M25.636,0h0a1.238,1.238,0,0,0-1.2,1.268V19.36a1.2,1.2,0,1,0,2.395,0V1.268A1.238,1.238,0,0,0,25.636,0" transform="translate(-13.145 0)" fill="#00babc"/>
        </g>
    </g>
</svg>
