<svg xmlns="http://www.w3.org/2000/svg" xmlns:xlink="http://www.w3.org/1999/xlink" width="356" height="278.867" viewBox="0 0 356 278.867">
    <defs>
        <clipPath id="clip-path">
            <rect id="Rectangle_125" data-name="Rectangle 125" width="87.717" height="132.185" fill="#fff"/>
        </clipPath>
    </defs>
    <g id="Group_64" data-name="Group 64" transform="translate(-211 -2319)">
        <g id="Group_51" data-name="Group 51" transform="translate(418.186 2429.082)">
            <g id="Group_45" data-name="Group 45" transform="translate(0 0)" clip-path="url(#clip-path)">
                <path id="Path_92" data-name="Path 92" d="M7.673,14.994A7.933,7.933,0,0,0,0,23.12V50.251a7.93,7.93,0,0,0,7.673,8.123,7.93,7.93,0,0,0,7.673-8.123V23.12a7.933,7.933,0,0,0-7.673-8.126" transform="translate(0 29.409)" fill="#fff"/>
                <path id="Path_93" data-name="Path 93" d="M15.822,10h0a7.935,7.935,0,0,0-7.676,8.123V74.852a7.935,7.935,0,0,0,7.676,8.126,7.932,7.932,0,0,0,7.67-8.126V18.122A7.932,7.932,0,0,0,15.822,10" transform="translate(15.977 19.607)" fill="#fff"/>
                <path id="Path_94" data-name="Path 94" d="M23.966,5h0a7.933,7.933,0,0,0-7.673,8.126V99.455a7.933,7.933,0,0,0,7.673,8.126,7.933,7.933,0,0,0,7.673-8.126V13.124A7.933,7.933,0,0,0,23.966,5" transform="translate(31.956 9.804)" fill="#fff"/>
                <path id="Path_95" data-name="Path 95" d="M32.112,0h0a7.933,7.933,0,0,0-7.673,8.126V124.059a7.933,7.933,0,0,0,7.673,8.126,7.933,7.933,0,0,0,7.673-8.126V8.126A7.933,7.933,0,0,0,32.112,0" transform="translate(47.933 0.001)" fill="#fff"/>
            </g>
        </g>
        <g id="Group_50" data-name="Group 50" transform="translate(211 2319)">
            <path id="Path_96" data-name="Path 96" d="M49.467,8H2V19.867H49.467a53.461,53.461,0,0,1,53.4,53.4V114.8a5.942,5.942,0,0,0,1.3,3.708l18.417,23.021-9.731,3.24A5.933,5.933,0,0,0,108.8,150.4v18.868l-24.9,4.978a5.933,5.933,0,0,0-2.391,10.561l21.135,15.854a17.836,17.836,0,0,1-17.58,15.005h-53.4a5.933,5.933,0,0,0-5.933,5.933v35.6H37.6V227.533H85.067a29.7,29.7,0,0,0,29.667-29.667,5.933,5.933,0,0,0-2.373-4.747l-13.113-9.837,16.655-3.335a5.933,5.933,0,0,0,4.764-5.815V154.678l13.742-4.581a5.951,5.951,0,0,0,2.759-9.339l-22.434-28.041V73.267A65.344,65.344,0,0,0,49.467,8Zm160.2,77.133H162.2a5.933,5.933,0,0,0-5.933,5.933v47.467h11.867V97h41.533ZM358,91.067a5.933,5.933,0,0,0-5.933-5.933H304.6V97h41.533v41.533H358ZM346.133,275H304.6v11.867h47.467A5.933,5.933,0,0,0,358,280.933V233.467H346.133Zm-136.467,0H168.133V233.467H156.267v47.467a5.933,5.933,0,0,0,5.933,5.933h47.467Z" transform="translate(-2 -8)" fill="#fff"/>
            <path id="Path_97" data-name="Path 97" d="M48.893,21h-.012a5.854,5.854,0,0,0-5.654,3.75,11.871,11.871,0,0,1-22.523,0A5.854,5.854,0,0,0,15.049,21h-.012a5.8,5.8,0,0,0-5.6,7.476,23.739,23.739,0,0,0,45.058,0A5.8,5.8,0,0,0,48.893,21Z" transform="translate(33.302 56.133)" fill="#fff"/>
        </g>
    </g>
</svg>
